<?xml version="1.0" standalone="no"?>
<!DOCTYPE svg PUBLIC "-//W3C//DTD SVG 20010904//EN"
 "http://www.w3.org/TR/2001/REC-SVG-20010904/DTD/svg10.dtd">
<svg version="1.0" xmlns="http://www.w3.org/2000/svg"
 width="41.000000pt" height="16.000000pt" viewBox="0 0 41.000000 16.000000"
 preserveAspectRatio="xMidYMid meet">
<metadata>
Created by potrace 1.16, written by Peter Selinger 2001-2019
</metadata>
<g transform="translate(0.000000,16.000000) scale(0.100000,-0.100000)"
fill="#000000" stroke="none">
<path d="M83 152 c-66 -5 -51 -18 29 -26 39 -3 91 -15 116 -26 55 -25 56 -25
49 0 -6 24 -4 24 34 4 43 -22 69 -51 63 -69 -10 -26 -34 -17 -34 13 l-1 27
-15 -29 c-13 -24 -14 -30 -2 -37 22 -14 47 -10 69 12 17 17 20 29 16 56 -4 20
-13 43 -22 53 -17 18 -95 27 -95 10 0 -6 -14 -3 -31 6 -17 8 -28 11 -25 5 9
-15 -7 -14 -22 1 -6 6 -14 9 -18 6 -3 -4 8 -14 26 -23 18 -9 29 -19 27 -22 -3
-3 -16 2 -28 10 -11 9 -28 13 -37 10 -11 -5 -13 -3 -7 6 6 10 2 11 -15 6 -12
-4 -25 -3 -29 1 -3 5 -25 8 -48 6z"/>
</g>
</svg>
